<?xml version="1.0" standalone="no"?>
<!DOCTYPE svg PUBLIC "-//W3C//DTD SVG 20010904//EN"
 "http://www.w3.org/TR/2001/REC-SVG-20010904/DTD/svg10.dtd">
<svg version="1.0" xmlns="http://www.w3.org/2000/svg"
 width="2274.000000pt" height="203.000000pt" viewBox="0 0 2274.000000 203.000000"
 preserveAspectRatio="xMidYMid meet">

<g transform="translate(0.000000,203.000000) scale(0.100000,-0.100000)"
fill="#000000" stroke="none">
<path d="M7480 1056 l0 -966 189 0 189 0 -6 548 -5 547 39 -35 c22 -19 311
-280 643 -580 332 -300 610 -546 617 -548 12 -3 14 149 14 962 l0 966 -187 0
-188 0 3 -556 3 -557 -59 54 c-594 549 -1227 1125 -1238 1127 -12 3 -14 -131
-14 -962z"/>
<path d="M815 1960 c-134 -21 -274 -78 -393 -159 -224 -152 -384 -417 -409
-673 l-6 -68 192 0 191 0 0 26 c0 43 30 145 62 212 34 73 135 185 209 232 125
81 314 104 464 56 97 -31 158 -71 239 -156 105 -112 156 -244 156 -408 0 -118
-13 -179 -60 -277 -68 -143 -191 -250 -340 -296 -80 -25 -219 -26 -304 -4
-124 33 -259 130 -328 236 -17 27 -33 49 -35 49 -4 0 -315 -179 -321 -184 -8
-8 107 -152 169 -212 122 -117 263 -195 426 -236 123 -31 341 -30 458 1 279
74 513 272 635 535 55 118 71 192 77 347 4 105 2 155 -12 220 -70 346 -360
651 -703 740 -89 23 -277 33 -367 19z"/>
<path d="M15375 1946 c-244 -57 -397 -197 -441 -405 -39 -187 5 -353 128 -475
75 -74 127 -104 330 -191 177 -76 246 -118 289 -178 28 -39 30 -47 27 -107 -4
-83 -29 -119 -106 -157 -52 -26 -66 -28 -172 -28 -95 0 -127 4 -185 24 -76 26
-174 72 -217 102 -14 11 -31 19 -36 19 -10 0 -162 -260 -162 -277 0 -12 89
-65 180 -107 196 -90 479 -121 665 -72 258 69 425 272 425 516 -1 153 -48 277
-145 376 -68 69 -145 115 -293 173 -214 85 -307 145 -343 218 -20 42 -21 51
-11 101 13 62 38 94 97 125 35 19 56 22 155 21 128 0 203 -20 340 -89 38 -19
72 -35 75 -35 3 0 36 63 75 140 l70 139 -68 40 c-84 50 -203 98 -290 117 -98
22 -313 27 -387 10z"/>
<path d="M17450 1946 c-187 -39 -332 -144 -400 -288 -41 -87 -53 -156 -48
-280 4 -99 7 -113 41 -181 67 -135 185 -225 422 -322 240 -99 325 -171 325
-279 0 -114 -94 -185 -255 -194 -138 -6 -285 36 -419 122 l-55 35 -80 -142
-80 -142 27 -23 c43 -37 199 -109 294 -136 175 -50 391 -59 533 -20 138 37
264 121 330 219 61 92 87 181 87 294 -1 144 -27 234 -98 327 -75 99 -156 151
-365 234 -181 72 -292 145 -319 210 -18 43 -8 130 18 168 12 16 43 41 70 54
41 20 61 23 157 23 97 -1 121 -5 202 -33 51 -17 120 -45 154 -62 33 -17 62
-30 64 -28 8 8 135 269 135 276 0 5 -39 29 -87 55 -169 88 -272 116 -458 122
-88 3 -151 0 -195 -9z"/>
<path d="M2800 1021 l0 -931 190 0 190 0 0 294 0 294 303 4 c297 4 303 4 384
31 152 51 292 179 343 314 45 119 54 174 54 303 -1 108 -5 136 -28 207 -64
197 -205 323 -431 385 -76 21 -103 22 -542 26 l-463 3 0 -930z m933 558 c53
-14 102 -61 133 -127 23 -46 28 -72 28 -133 1 -65 -3 -84 -29 -134 -34 -66
-93 -118 -153 -135 -21 -5 -145 -10 -284 -10 l-248 0 0 275 0 275 258 0 c148
0 273 -5 295 -11z"/>
<path d="M5200 1020 l0 -930 690 0 690 0 -2 178 -3 177 -502 3 -503 2 0 195 0
195 408 2 407 3 3 178 2 177 -410 0 -410 0 0 195 0 195 485 0 485 0 0 180 0
180 -670 0 -670 0 0 -930z"/>
<path d="M10082 1941 c41 -110 844 -1929 849 -1923 4 4 195 437 424 962 229
525 419 958 422 963 2 4 -95 6 -217 5 l-222 -3 -196 -517 c-108 -284 -198
-515 -200 -513 -2 1 -97 234 -211 516 l-208 514 -222 3 c-130 1 -221 -1 -219
-7z"/>
<path d="M12700 1020 l0 -930 650 0 650 0 0 180 0 180 -465 0 -465 0 0 195 0
195 398 2 397 3 3 178 2 177 -400 0 -400 0 0 195 0 195 448 2 447 3 3 178 2
177 -635 0 -635 0 0 -930z"/>
<path d="M19150 1020 l0 -930 690 0 690 0 0 180 0 180 -505 0 -505 0 0 195 0
195 410 0 410 0 0 180 0 180 -410 0 -410 0 0 195 0 195 488 2 487 3 3 178 2
177 -675 0 -675 0 0 -930z"/>
<path d="M21420 1020 l0 -930 655 0 655 0 0 180 0 180 -470 0 -470 0 0 750 0
750 -185 0 -185 0 0 -930z"/>
</g>
</svg>
